<?xml version="1.0" encoding="UTF-8"?>
<svg version="1.1" xmlns="http://www.w3.org/2000/svg" width="2000" height="1500">
<path d="M0 0 C660 0 1320 0 2000 0 C2000 495 2000 990 2000 1500 C1340 1500 680 1500 0 1500 C0 1005 0 510 0 0 Z " fill="#FEFEFE" transform="translate(0,0)"/>
<path d="M0 0 C77.22 0 154.44 0 234 0 C234 23.76 234 47.52 234 72 C250.83 72 267.66 72 285 72 C285 118.2 285 164.4 285 212 C254.64 212 224.28 212 193 212 C193 165.47 193 118.94 193 71 C200.59 71 208.18 71 216 71 C216 53.84 216 36.68 216 19 C150.99 19 85.98 19 19 19 C19 63.22 19 107.44 19 153 C70.81 153 122.62 153 176 153 C176 159.27 176 165.54 176 172 C159.83 172 143.66 172 127 172 C127 178.93 127 185.86 127 193 C138.88 193 150.76 193 163 193 C163 198.94 163 204.88 163 211 C132.64 211 102.28 211 71 211 C71 205.06 71 199.12 71 193 C83.21 193 95.42 193 108 193 C108 186.07 108 179.14 108 172 C72.36 172 36.72 172 0 172 C0 115.24 0 58.48 0 0 Z " fill="#4F2D53" transform="translate(267,644)"/>
<path d="M0 0 C4.62 0 9.24 0 14 0 C14.33 16.83 14.66 33.66 15 51 C19.455 46.05 19.455 46.05 24 41 C32.27332666 36.17389278 41.59789524 35.638429 51 37 C54.75297154 38.18097239 57.77700026 39.76469373 61 42 C62.36125 42.86625 62.36125 42.86625 63.75 43.75 C72.35384228 52.35384228 76.57582215 63.9462795 77 76 C77.0515625 77.29164063 77.103125 78.58328125 77.15625 79.9140625 C77.39468375 88.72418949 76.81643789 96.56287869 74 105 C73.73316406 105.87140625 73.46632813 106.7428125 73.19140625 107.640625 C70.43204452 115.63664209 65.49927291 122.47930468 57.875 126.4375 C56.6022034 127.0028839 55.30748505 127.52025739 54 128 C53.05898438 128.35449219 52.11796875 128.70898438 51.1484375 129.07421875 C43.06759415 131.45034763 34.75868026 130.71268051 27.15234375 127.19921875 C21.67527746 124.14756838 18.22155288 120.32795284 15 115 C14.67 119.29 14.34 123.58 14 128 C9.38 128 4.76 128 0 128 C0 85.76 0 43.52 0 0 Z " fill="#4E2B52" transform="translate(721,683)"/>
<path d="M0 0 C4.29 0 8.58 0 13 0 C13 42.24 13 84.48 13 128 C8.71 128 4.42 128 0 128 C-0.33 123.38 -0.66 118.76 -1 114 C-1.886875 115.2375 -2.77375 116.475 -3.6875 117.75 C-8.97399412 124.70076079 -14.55953332 127.83150066 -23 130 C-32.3635056 131.18508903 -41.02346455 129.41584621 -48.75 123.9375 C-57.25356166 116.81614271 -62.00743149 105.92069533 -63 95 C-63.1890296 90.93677776 -63.23057465 86.87968353 -63.25 82.8125 C-63.270625 81.75224609 -63.29125 80.69199219 -63.3125 79.59960938 C-63.37919916 65.91794473 -60.03344395 54.33831694 -50.6875 44.125 C-42.87561457 37.00338893 -34.72387726 36.04975802 -24.46484375 36.4921875 C-17.15648678 37.10935832 -11.07947392 39.85053804 -5.9375 45.109375 C-2 50.10416667 -2 50.10416667 -2 53 C-1.34 53 -0.68 53 0 53 C0 35.51 0 18.02 0 0 Z " fill="#4C2951" transform="translate(1504,683)"/>
<path d="M0 0 C18.48 0 36.96 0 56 0 C56 33.99 56 67.98 56 103 C37.52 103 19.04 103 0 103 C0 69.01 0 35.02 0 0 Z " fill="#FBFBFB" transform="translate(478,734)"/>
<path d="M0 0 C10.6818642 5.35601948 17.90587931 13.77981415 21.75390625 25.01953125 C23.89665649 32.61655484 23.3125 40.09208879 23.3125 48 C1.5325 48 -20.2475 48 -42.6875 48 C-40.71152665 63.13338193 -40.71152665 63.13338193 -31.515625 73.74609375 C-24.321156 78.68076159 -17.29091477 79.11576976 -8.6875 78 C-0.52707492 75.41254814 5.02032984 71.41717124 9.3125 64 C12.46580554 64.60694155 14.50138867 65.6416665 17.0625 67.5625 C17.67609375 68.01753906 18.2896875 68.47257813 18.921875 68.94140625 C19.61023437 69.46541016 19.61023437 69.46541016 20.3125 70 C16.10945206 79.98223885 9.81289181 84.71976785 0.0234375 89.0546875 C-10.12345458 92.59294093 -22.3156986 92.44385349 -32.19140625 88.26171875 C-45.12214215 81.72552517 -51.01031622 73.36297248 -55.8046875 59.8515625 C-59.18378874 45.10911197 -57.92581642 28.07537493 -49.875 15.125 C-38.24309703 -0.71295267 -18.88929484 -7.29146355 0 0 Z " fill="#4E2C53" transform="translate(1602.6875,722)"/>
<path d="M0 0 C6.96973851 4.69803193 10.38262184 10.14786551 13 18 C13.08840088 19.85594728 13.11762704 21.71495117 13.11352539 23.57299805 C13.11341209 25.28443245 13.11341209 25.28443245 13.11329651 27.03044128 C13.10813522 28.26176285 13.10297394 29.49308441 13.09765625 30.76171875 C13.0962413 32.02264847 13.09482635 33.28357819 13.09336853 34.5827179 C13.08871575 37.93151709 13.07973342 41.28024811 13.06866455 44.62902832 C13.05842687 48.04760143 13.05386586 51.46618159 13.04882812 54.88476562 C13.03779099 61.58986504 13.0205222 68.29492317 13 75 C17.29 75 21.58 75 26 75 C26 78.96 26 82.92 26 87 C9.51591128 87.76374156 9.51591128 87.76374156 4 83 C1.95277976 79.72444762 0.88198552 76.72037528 0 73 C-0.36351562 73.51949219 -0.72703125 74.03898438 -1.1015625 74.57421875 C-5.71254641 80.97048104 -10.63265564 86.96634595 -18.73828125 88.52734375 C-29.44183151 90.07839714 -39.04199181 89.41610958 -48.3203125 83.52734375 C-53.69043965 79.33626665 -56.52504469 74.63729889 -58 68 C-58.88285584 60.34858268 -58.8951404 53.25642944 -54 47 C-47.15247805 39.5010545 -40.0030849 36.72639648 -30 36 C-24.99916285 35.88383654 -20.00182592 35.90565684 -15 35.9375 C-13.63932456 35.94252513 -12.27864733 35.94708624 -10.91796875 35.95117188 C-7.61193275 35.96289541 -4.30598999 35.97930573 -1 36 C-0.78589176 23.63406847 -0.78589176 23.63406847 -6 13 C-13.01583554 8.44536483 -19.72804807 7.25194668 -28 8 C-35.83374296 9.77988082 -40.31591858 13.60979621 -45 20 C-48.99500618 18.6302836 -51.80009492 16.74277578 -55 14 C-53.31651563 7.82722397 -48.81085922 3.68392488 -43.45703125 0.4765625 C-31.00042553 -5.88973821 -12.38748942 -7.36729634 0 0 Z " fill="#4D2B52" transform="translate(1085,724)"/>
<path d="M0 0 C0.89009766 -0.01160156 1.78019531 -0.02320313 2.69726562 -0.03515625 C12.64890198 0.0084594 20.13797861 2.74355249 27.5625 9.375 C34.89546977 17.10434652 34.98335207 24.56629022 34.85546875 34.74609375 C34.85122391 36.02355972 34.84697906 37.3010257 34.84260559 38.61720276 C34.8287045 41.99248297 34.8018115 45.36714052 34.76849365 48.74224854 C34.73765321 52.19464779 34.7240706 55.6471117 34.70898438 59.09960938 C34.67597314 65.8582654 34.62421958 72.61654762 34.5625 79.375 C38.8525 79.375 43.1425 79.375 47.5625 79.375 C47.5625 83.335 47.5625 87.295 47.5625 91.375 C45.18624823 91.48383596 42.81506024 91.56266696 40.4375 91.625 C39.77234375 91.65851563 39.1071875 91.69203125 38.421875 91.7265625 C33.27571949 91.82746751 30.53753167 90.55621015 26.5625 87.375 C23.27310863 84.08560863 22.99966536 80.92151977 22.5625 76.375 C21.9025 76.375 21.2425 76.375 20.5625 76.375 C20.315 77.261875 20.0675 78.14875 19.8125 79.0625 C17.22807919 85.91121514 13.37279304 88.28955396 7 91.359375 C-1.3371944 94.833206 -12.02804973 94.7544178 -20.41015625 91.4140625 C-29.01112398 87.00585939 -33.24876665 81.46628231 -36.4375 72.375 C-37.4359622 63.70004923 -36.13023341 56.54453725 -30.75 49.625 C-24.4709672 42.83560246 -15.72666429 40.59990124 -6.71118164 40.21655273 C-2.43183426 40.15458977 1.84576426 40.19992836 6.125 40.25 C7.62564506 40.26005077 9.12629665 40.26917291 10.62695312 40.27734375 C14.27227281 40.29918909 17.91734376 40.3336031 21.5625 40.375 C21.44118861 38.13752072 21.3088491 35.90063758 21.171875 33.6640625 C21.09936523 32.41834473 21.02685547 31.17262695 20.95214844 29.88916016 C20.29829365 23.99217659 18.34311248 20.20373714 14.25 16 C7.82126529 12.11285808 0.90948685 11.5380015 -6.4375 12.375 C-13.47950904 14.41376631 -19.347614 18.240171 -23.4375 24.375 C-27.87208973 22.9812718 -30.31128374 20.76917765 -33.4375 17.375 C-25.48009298 5.08002602 -14.44121265 -0.187413 0 0 Z " fill="#4D2A52" transform="translate(648.4375,719.625)"/>
<path d="M0 0 C0.81700882 0.00141495 1.63401764 0.0028299 2.4757843 0.00428772 C5.08415393 0.00988331 7.69243759 0.02243496 10.30078125 0.03515625 C12.06966022 0.04017182 13.83854053 0.04473463 15.60742188 0.04882812 C19.94274144 0.05985129 24.27799677 0.07711287 28.61328125 0.09765625 C28.61328125 4.05765625 28.61328125 8.01765625 28.61328125 12.09765625 C16.73328125 12.09765625 4.85328125 12.09765625 -7.38671875 12.09765625 C-7.38671875 21.00765625 -7.38671875 29.91765625 -7.38671875 39.09765625 C4.49328125 39.09765625 16.37328125 39.09765625 28.61328125 39.09765625 C28.61328125 42.72765625 28.61328125 46.35765625 28.61328125 50.09765625 C16.73328125 50.09765625 4.85328125 50.09765625 -7.38671875 50.09765625 C-7.38671875 71.87765625 -7.38671875 93.65765625 -7.38671875 116.09765625 C3.17328125 116.09765625 13.73328125 116.09765625 24.61328125 116.09765625 C24.61328125 120.05765625 24.61328125 124.01765625 24.61328125 128.09765625 C-0.46671875 128.09765625 -25.54671875 128.09765625 -51.38671875 128.09765625 C-51.38671875 124.13765625 -51.38671875 120.17765625 -51.38671875 116.09765625 C-41.48671875 116.09765625 -31.58671875 116.09765625 -21.38671875 116.09765625 C-21.38671875 94.31765625 -21.38671875 72.53765625 -21.38671875 50.09765625 C-31.61671875 50.09765625 -41.84671875 50.09765625 -52.38671875 50.09765625 C-52.38671875 46.46765625 -52.38671875 42.83765625 -52.38671875 39.09765625 C-42.15671875 39.09765625 -31.92671875 39.09765625 -21.38671875 39.09765625 C-21.5440514 31.2298933 -21.5440514 31.2298933 -21.74707031 23.36328125 C-21.8211816 15.98084114 -21.16784747 10.04926864 -15.90307617 4.54711914 C-10.79243914 0.05762958 -6.50228479 -0.04227539 0 0 Z " fill="#4D2A52" transform="translate(977.38671875,682.90234375)"/>
<path d="M0 0 C1.70703125 1.52734375 1.70703125 1.52734375 3.70703125 5.52734375 C-0.25296875 8.99234375 -0.25296875 8.99234375 -4.29296875 12.52734375 C-5.32744141 11.82158203 -5.32744141 11.82158203 -6.3828125 11.1015625 C-18.01339587 3.39570274 -27.93451802 0.47518668 -42.08203125 3.03125 C-46.87976228 4.43526828 -50.47412534 6.25361342 -53.29296875 10.52734375 C-54.26075758 15.38228439 -54.08586675 19.1471139 -51.60546875 23.46484375 C-45.73952997 27.11722072 -39.0975506 27.83222668 -32.390625 29.05761719 C-30.22190975 29.45645374 -28.05429183 29.86129418 -25.88769531 30.27148438 C-23.69981193 30.68414793 -21.50905205 31.08191052 -19.31542969 31.46289062 C-11.58532603 32.9139422 -4.79650866 35.00476286 0.86328125 40.6953125 C1.5284375 41.69498047 1.5284375 41.69498047 2.20703125 42.71484375 C2.903125 43.72611328 2.903125 43.72611328 3.61328125 44.7578125 C6.957104 50.16764003 6.16996581 56.34580578 5.70703125 62.52734375 C4.01864684 69.60030545 -1.46234186 74.53703612 -7.29296875 78.52734375 C-20.4019679 84.75008343 -36.36400321 85.55564355 -50.29296875 81.52734375 C-59.17261749 77.98920556 -66.56603586 73.37884947 -73.29296875 66.52734375 C-71.62630208 64.86067708 -69.95963542 63.19401042 -68.29296875 61.52734375 C-67.77734375 60.90859375 -67.26171875 60.28984375 -66.73046875 59.65234375 C-65.29296875 58.52734375 -65.29296875 58.52734375 -63.4609375 58.75 C-60.84009338 59.68972609 -59.27464872 61.02467854 -57.16796875 62.83984375 C-49.26274484 69.03651927 -42.6778666 70.86569705 -32.73046875 70.96484375 C-31.54348389 70.98019165 -31.54348389 70.98019165 -30.33251953 70.99584961 C-23.6418315 70.89670263 -17.06050776 69.81056343 -11.79296875 65.46484375 C-8.89445067 61.72092456 -8.89572907 58.64135637 -8.94921875 54.0078125 C-9.13583553 51.26099531 -9.13583553 51.26099531 -11.41796875 48.52734375 C-15.9973004 45.34172173 -20.71058155 44.32651353 -26.1796875 43.59765625 C-27.83581055 43.36369141 -27.83581055 43.36369141 -29.52539062 43.125 C-31.80856005 42.81266139 -34.09241344 42.50527803 -36.37695312 42.203125 C-47.6520175 40.59333635 -58.45346568 38.2785889 -65.60546875 28.78515625 C-69.02788758 23.05735808 -69.23899589 17.02395492 -68.29296875 10.52734375 C-66.01455507 3.05162699 -62.01081666 -1.60829422 -55.29296875 -5.47265625 C-37.79518447 -14.6364443 -15.68496733 -10.5051451 0 0 Z " fill="#4E2B53" transform="translate(1411.29296875,729.47265625)"/>
<path d="M0 0 C3.89964433 2.88528598 6.46793137 5.82176285 8.02734375 10.5 C8.14862888 13.36747449 8.21552347 16.20983606 8.23046875 19.078125 C8.23616882 19.92292419 8.2418689 20.76772339 8.2477417 21.63812256 C8.25718675 23.42686717 8.26372372 25.21562914 8.26757812 27.00439453 C8.27725803 29.72589984 8.30827497 32.44664147 8.33984375 35.16796875 C8.34637681 36.9088497 8.35162609 38.64973603 8.35546875 40.390625 C8.36781555 41.19816223 8.38016235 42.00569946 8.3928833 42.83770752 C8.36952779 48.83474348 7.42406323 53.75850881 3.34375 58.42578125 C2.47556641 59.11220703 2.47556641 59.11220703 1.58984375 59.8125 C1.01363281 60.28300781 0.43742187 60.75351562 -0.15625 61.23828125 C-5.0975116 64.67059845 -8.93033644 64.83639871 -14.84765625 64.8125 C-15.63785156 64.82861328 -16.42804688 64.84472656 -17.2421875 64.86132812 C-24.50671332 64.86737182 -29.65547706 62.53732765 -34.97265625 57.5 C-40.82457298 48.80572371 -41.3156069 40.31218781 -41.28515625 30.0625 C-41.30932617 28.44118164 -41.30932617 28.44118164 -41.33398438 26.78710938 C-41.34037369 16.25112463 -39.47683358 9.04958308 -32.0546875 1.38671875 C-23.50865679 -6.35762053 -9.60466234 -5.62535964 0 0 Z " fill="#FCFBFC" transform="translate(1495.97265625,735.5)"/>
<path d="M0 0 C4.62 0 9.24 0 14 0 C14.0093457 1.8257959 14.01869141 3.6515918 14.02832031 5.53271484 C14.06399968 11.59977445 14.11789302 17.66646428 14.18390274 23.73326683 C14.22322752 27.40764392 14.25548858 31.08178674 14.27099609 34.75634766 C14.28626285 38.30985736 14.32088162 41.86272238 14.36830902 45.41594315 C14.3901264 47.41524658 14.39246509 49.41473246 14.39434814 51.41415405 C14.53165237 60.05218866 15.19615317 68.19615317 21.5625 74.5625 C28.01962556 78.37054841 36.69436802 77.83534087 44 77 C49.99203097 75.03094733 52.86092746 71.37237528 56 66 C56.60776419 62.73958514 56.60776419 62.73958514 56.54589844 59.26025391 C56.55623611 58.61564209 56.56657379 57.97103027 56.57722473 57.30688477 C56.60649741 55.19651766 56.60814845 53.08711605 56.609375 50.9765625 C56.62436734 49.50538318 56.64109671 48.03422063 56.65948486 46.56307983 C56.70305312 42.70635171 56.72313379 38.84985059 56.73822021 34.99291992 C56.75782958 31.05113358 56.79979515 27.10959104 56.83984375 23.16796875 C56.91503189 15.44534738 56.96332357 7.72291789 57 0 C61.62 0 66.24 0 71 0 C71 29.37 71 58.74 71 89 C66.38 89 61.76 89 57 89 C56.67 84.71 56.34 80.42 56 76 C55.484375 76.86625 54.96875 77.7325 54.4375 78.625 C50.43212836 84.54902869 45.43294914 88.56272958 38.515625 90.52734375 C28.64270739 92.38234846 20.16851371 91.08704687 11.77734375 85.52734375 C5.13549106 80.27593499 1.35934087 73.32296244 0 65 C-0.08529699 62.82320055 -0.11775542 60.64404204 -0.11352539 58.46557617 C-0.11344986 57.16460495 -0.11337433 55.86363373 -0.11329651 54.52323914 C-0.10819062 53.11314861 -0.10297464 51.70305849 -0.09765625 50.29296875 C-0.09578979 48.84279937 -0.09436696 47.39262935 -0.09336853 45.94245911 C-0.0895613 42.13667034 -0.07974642 38.33092009 -0.06866455 34.52514648 C-0.05841177 30.63721233 -0.05386264 26.74927192 -0.04882812 22.86132812 C-0.03812246 15.24086587 -0.02054028 7.62044325 0 0 Z " fill="#4D2A52" transform="translate(824,722)"/>
<path d="M0 0 C6.0967957 3.95573682 9.43181595 9.42851008 11.82421875 16.18359375 C12.49829307 21.03706944 12.4797424 25.7910526 12.38671875 30.68359375 C12.39767578 31.93785156 12.40863281 33.19210937 12.41992188 34.484375 C12.33742689 44.98873686 10.39051785 53.61729465 2.82421875 61.18359375 C-4.79539129 66.57307402 -14.78216282 66.25082868 -23.7265625 64.7578125 C-28.9537505 63.10338212 -32.24261352 59.64931624 -35.17578125 55.18359375 C-36.07935601 52.47286947 -36.31983444 50.80111641 -36.36865234 48.00683594 C-36.38471527 47.16876404 -36.4007782 46.33069214 -36.41732788 45.46722412 C-36.46198522 41.63489765 -36.50284765 37.80274098 -36.52587891 33.97021484 C-36.5424227 31.95284476 -36.56969188 29.93553291 -36.60791016 27.91845703 C-36.66286032 25.00132005 -36.68458098 22.08555457 -36.69921875 19.16796875 C-36.73322281 17.82542023 -36.73322281 17.82542023 -36.76791382 16.45574951 C-36.74656709 10.08416595 -35.37279102 6.99844743 -31.17578125 2.18359375 C-22.54139816 -4.84439248 -9.64889791 -5.15440203 0 0 Z " fill="#FDFDFD" transform="translate(771.17578125,734.81640625)"/>
<path d="M0 0 C12.87 0 25.74 0 39 0 C39 7.26 39 14.52 39 22 C39.66 22 40.32 22 41 22 C41.04125 21.195625 41.0825 20.39125 41.125 19.5625 C42.91680577 12.2672908 46.79645136 7.38695356 53.1875 3.5 C57.62596096 1.04555154 61.0206052 -0.12704852 66.10546875 -0.09765625 C67.08837891 -0.09443359 68.07128906 -0.09121094 69.08398438 -0.08789062 C70.62022461 -0.07532227 70.62022461 -0.07532227 72.1875 -0.0625 C73.22326172 -0.05798828 74.25902344 -0.05347656 75.32617188 -0.04882812 C77.8841392 -0.03704026 80.44207686 -0.01910482 83 0 C83 4.29 83 8.58 83 13 C81.45570312 13.02578125 79.91140625 13.0515625 78.3203125 13.078125 C76.25518165 13.13444675 74.19007857 13.19179313 72.125 13.25 C71.11179687 13.26417969 70.09859375 13.27835938 69.0546875 13.29296875 C61.09081848 13.54822096 53.98327859 14.85871526 47.59765625 19.89453125 C47.09105469 20.52746094 46.58445312 21.16039062 46.0625 21.8125 C45.53785156 22.43769531 45.01320313 23.06289063 44.47265625 23.70703125 C40.25560098 30.27310934 39.54115434 35.64382883 39.48828125 43.30859375 C39.47033005 44.27531509 39.45237885 45.24203644 39.43388367 46.23805237 C39.38000489 49.30449147 39.34595691 52.37077692 39.3125 55.4375 C39.27930714 57.5254119 39.24481567 59.61330359 39.20898438 61.70117188 C39.12186318 66.80080063 39.06160242 71.89974467 39 77 C50.55 77 62.1 77 74 77 C74 80.96 74 84.92 74 89 C49.25 89 24.5 89 -1 89 C-1 85.04 -1 81.08 -1 77 C7.91 77 16.82 77 26 77 C26 55.22 26 33.44 26 11 C17.42 11 8.84 11 0 11 C0 7.37 0 3.74 0 0 Z " fill="#4C2951" transform="translate(1133,722)"/>
<path d="M0 0 C15.18 0 30.36 0 46 0 C46 25.41 46 50.82 46 77 C55.9 77 65.8 77 76 77 C76 80.96 76 84.92 76 89 C50.92 89 25.84 89 0 89 C0 85.04 0 81.08 0 77 C10.56 77 21.12 77 32 77 C32 55.22 32 33.44 32 11 C21.44 11 10.88 11 0 11 C0 7.37 0 3.74 0 0 Z " fill="#4D2A52" transform="translate(1241,722)"/>
<path d="M0 0 C4.62 0 9.24 0 14 0 C23.17141219 24.82291049 31.52596452 49.93297747 40 75 C41.66154767 72.50767849 42.51829697 70.82547142 43.4453125 68.06469727 C43.8476284 66.87787102 43.8476284 66.87787102 44.2580719 65.66706848 C44.54415817 64.80884995 44.83024445 63.95063141 45.125 63.06640625 C45.42844833 62.16858932 45.73189667 61.2707724 46.04454041 60.3457489 C46.69563494 58.41856834 47.34485867 56.49075491 47.99240112 54.56237793 C49.67418567 49.55527792 51.37004795 44.55295926 53.06640625 39.55078125 C53.40225235 38.5597641 53.73809845 37.56874695 54.0841217 36.54769897 C58.23955443 24.31110189 62.59455938 12.14865037 67 0 C71.62 0 76.24 0 81 0 C75.92181821 15.51979054 70.50259905 30.89880105 64.9375 46.25 C63.76494492 49.49109862 62.59314283 52.73246808 61.42178345 55.97399902 C60.66733153 58.06154199 59.91227955 60.14886821 59.15658569 62.23596191 C57.46439362 66.91533063 55.78361966 71.59785785 54.14111328 76.29492188 C53.86167374 77.09395935 53.58223419 77.89299683 53.29432678 78.71624756 C52.78217545 80.18587601 52.27260081 81.65640597 51.76609802 83.12799072 C50.10834125 87.89165875 50.10834125 87.89165875 49 89 C47.65732587 89.08631874 46.31025678 89.10706473 44.96484375 89.09765625 C44.15595703 89.09443359 43.34707031 89.09121094 42.51367188 89.08789062 C41.66353516 89.07951172 40.81339844 89.07113281 39.9375 89.0625 C39.08349609 89.05798828 38.22949219 89.05347656 37.34960938 89.04882812 C35.23304337 89.03700373 33.11651315 89.01906769 31 89 C30.79656982 88.39905518 30.59313965 87.79811035 30.38354492 87.17895508 C23.31433735 66.36119946 15.89144011 45.67401634 8.42651367 24.99536133 C7.61767303 22.74951271 6.80883503 20.50366314 6 18.2578125 C5.62639847 17.22650711 5.25279694 16.19520172 4.86787415 15.13264465 C3.06580042 10.12459148 1.37894302 5.14141059 0 0 Z " fill="#4D2B52" transform="translate(1649,722)"/>
<path d="M0 0 C1.29550781 0.00322266 2.59101562 0.00644531 3.92578125 0.00976562 C5.28906317 0.01812027 6.65234442 0.02658521 8.015625 0.03515625 C9.39452965 0.04017457 10.77343604 0.0447369 12.15234375 0.04882812 C15.52348159 0.06061532 18.89453128 0.0770699 22.265625 0.09765625 C22.34707443 2.80660392 22.40633114 5.51306888 22.453125 8.22265625 C22.47826172 8.98320313 22.50339844 9.74375 22.52929688 10.52734375 C22.5934859 15.49129517 21.99710846 18.78783919 19.265625 23.09765625 C12.78297752 29.58030373 6.31159663 31.40591648 -2.734375 31.59765625 C-8.37944648 31.58791889 -12.71371639 30.95122888 -17.3515625 27.58203125 C-20.7591126 23.92420911 -21.05262447 20.5690769 -21.109375 15.66015625 C-21.13773438 14.54769531 -21.16609375 13.43523438 -21.1953125 12.2890625 C-20.63769088 8.42824159 -19.44411303 6.85141529 -16.734375 4.09765625 C-10.98121317 0.74164518 -6.60239281 -0.02895786 0 0 Z " fill="#FBFAFB" transform="translate(647.734375,769.90234375)"/>
<path d="M0 0 C5.99649171 3.74626183 9.77091515 9.4964622 11.89453125 16.18359375 C11.89453125 19.15359375 11.89453125 22.12359375 11.89453125 25.18359375 C-4.93546875 25.18359375 -21.76546875 25.18359375 -39.10546875 25.18359375 C-39.10546875 16.53013206 -37.99664875 11.53064421 -32.23828125 5.09765625 C-23.00891777 -3.41346882 -11.43375571 -5.95379352 0 0 Z " fill="#FDFCFD" transform="translate(1599.10546875,733.81640625)"/>
<path d="M0 0 C1.94229492 0.02030273 1.94229492 0.02030273 3.92382812 0.04101562 C7.09549214 0.0761263 10.2662709 0.12530653 13.4375 0.1875 C13.54595027 3.23013267 13.62502063 6.26886204 13.6875 9.3125 C13.73777344 10.59640625 13.73777344 10.59640625 13.7890625 11.90625 C13.87566381 17.53533541 13.24511872 20.74756914 9.4375 25.1875 C3.16444592 30.09684667 -2.70070854 31.53694451 -10.5625 31.5 C-11.59117188 31.52416992 -11.59117188 31.52416992 -12.640625 31.54882812 C-17.36672091 31.55333776 -20.5545309 30.6680599 -24.5625 28.1875 C-29.06150386 23.32371205 -30.05554565 19.24237704 -29.9609375 12.76171875 C-29.26317404 8.25361956 -27.05626861 5.94055433 -23.5625 3.1875 C-16.171291 -0.69808417 -8.11975308 -0.16197973 0 0 Z " fill="#FBFBFB" transform="translate(1070.5625,769.8125)"/>
<path d="M0 0 C7.92 0 15.84 0 24 0 C24 5.94 24 11.88 24 18 C16.08 18 8.16 18 0 18 C0 12.06 0 6.12 0 0 Z " fill="#4B2950" transform="translate(494,807)"/>
<path d="M0 0 C3.25 1.9375 3.25 1.9375 5 5 C5.77586101 9.79158118 5.56797108 13.80200473 3 18 C-1.2369122 20.56782557 -6.18680243 20.73244311 -11 20 C-13.87029869 18.20606332 -15.49131638 17.01736724 -17 14 C-17.3506291 8.65290626 -17.44403637 5.37127693 -14 1 C-9.7912481 -1.10437595 -4.57284134 -0.51756526 0 0 Z " fill="#4E2C53" transform="translate(1286,682)"/>
</svg>
